<svg xmlns="http://www.w3.org/2000/svg" viewBox="0 0 192.07 121.81"><defs><style>.cls-1{isolation:isolate;}.cls-2{fill:gray;}.cls-3{fill:#a3a3a3;}.cls-4{fill:#d1d1d1;}.cls-4,.cls-8{mix-blend-mode:soft-light;}.cls-5{fill:#e5e5e5;}.cls-6{fill:#ccc;}.cls-7{fill:#ed5d12;}.cls-10,.cls-8{fill:#fff;}.cls-9{fill:#b3b3b3;}.cls-11{fill:none;stroke:#060829;stroke-miterlimit:10;stroke-width:1.45px;}.cls-12{fill:#060829;}</style></defs><g class="cls-1"><g id="Layer_2" data-name="Layer 2"><g id="Layer_1-2" data-name="Layer 1"><path class="cls-2" d="M1.16,115v3.4a3.78,3.78,0,0,0,4,3.46H186.68a3.78,3.78,0,0,0,4-3.46V115Z"/><polygon class="cls-3" points="0 112.64 192.07 112.64 166.94 90.59 29.84 90.59 0 112.64"/><polygon class="cls-4" points="173.51 103.4 163.3 94.45 32.43 94.45 20.31 103.4 173.51 103.4"/><polygon class="cls-4" points="120.55 111.3 117.4 105.95 77 105.95 73.27 111.3 120.55 111.3"/><rect class="cls-5" x="28.3" width="140.18" height="92.04" rx="3.47"/><path class="cls-6" d="M166.94,87.15a3.37,3.37,0,0,1-3.39,3.35H33.23a3.37,3.37,0,0,1-3.39-3.35V4.89a3.37,3.37,0,0,1,3.39-3.35H163.55a3.37,3.37,0,0,1,3.39,3.35Z"/><rect class="cls-7" x="37.16" y="8.86" width="121.31" height="72.79"/><path class="cls-8" d="M72.3,87A199.67,199.67,0,0,0,89.8,72.16,226.06,226.06,0,0,0,120.33,36,249.77,249.77,0,0,0,140,1.54H33.23a3.37,3.37,0,0,0-3.39,3.35V87.15a3.37,3.37,0,0,0,3.39,3.35H67.44C69.09,89.38,70.71,88.2,72.3,87Z"/><path class="cls-2" d="M101.57,5.34a1.88,1.88,0,1,1-1.88-1.87A1.88,1.88,0,0,1,101.57,5.34Z"/><rect class="cls-9" y="112.64" width="192.07" height="4.62"/><rect class="cls-10" x="95" y="25.64" width="85.81" height="20" rx="4.84"/><rect class="cls-11" x="95" y="25.64" width="85.81" height="20" rx="4.84"/><path class="cls-12" d="M106.87,32.21l1.62,5.55L110,32.6c.16-.54.28-.91.35-1.11a1.46,1.46,0,0,1,.43-.56,1.52,1.52,0,0,1,1.73,0,1.6,1.6,0,0,1,.45.58c.08.21.2.57.35,1.09l1.48,5.16,1.64-5.55c.11-.4.19-.69.26-.87a1.21,1.21,0,0,1,.34-.48,1,1,0,0,1,.68-.2,1.09,1.09,0,0,1,.78.31,1,1,0,0,1,.32.73,3.68,3.68,0,0,1-.28,1.15l-2,6c-.18.51-.31.87-.41,1.1a1.73,1.73,0,0,1-.46.6,1.34,1.34,0,0,1-.86.26,1.3,1.3,0,0,1-.89-.28,1.66,1.66,0,0,1-.48-.69c-.1-.28-.21-.63-.34-1.07l-1.42-4.85-1.37,4.85a6.18,6.18,0,0,1-.59,1.53,1.23,1.23,0,0,1-1.13.51,1.35,1.35,0,0,1-.69-.16,1.37,1.37,0,0,1-.48-.45,3.35,3.35,0,0,1-.34-.71l-.23-.64-2-6a4.23,4.23,0,0,1-.3-1.15,1,1,0,0,1,.32-.72,1,1,0,0,1,.78-.32.9.9,0,0,1,.84.35A5.09,5.09,0,0,1,106.87,32.21Z"/><path class="cls-12" d="M122,32.21l1.62,5.55,1.47-5.16c.16-.54.28-.91.35-1.11a1.46,1.46,0,0,1,.43-.56,1.52,1.52,0,0,1,1.73,0,1.6,1.6,0,0,1,.45.58c.08.21.2.57.35,1.09l1.48,5.16,1.64-5.55c.11-.4.19-.69.26-.87a1.21,1.21,0,0,1,.34-.48,1,1,0,0,1,.68-.2,1.09,1.09,0,0,1,.78.31,1,1,0,0,1,.32.73,3.68,3.68,0,0,1-.28,1.15l-2,6c-.18.51-.31.87-.41,1.1a1.73,1.73,0,0,1-.46.6,1.34,1.34,0,0,1-.86.26,1.3,1.3,0,0,1-.89-.28,1.87,1.87,0,0,1-.48-.69c-.1-.28-.21-.63-.33-1.07l-1.43-4.85-1.37,4.85a6.18,6.18,0,0,1-.59,1.53,1.23,1.23,0,0,1-1.12.51,1.32,1.32,0,0,1-1.18-.61,3.35,3.35,0,0,1-.34-.71c-.09-.27-.17-.48-.23-.64l-2-6a4.23,4.23,0,0,1-.3-1.15A1,1,0,0,1,120,31a1,1,0,0,1,.78-.32.89.89,0,0,1,.84.35A5.09,5.09,0,0,1,122,32.21Z"/><path class="cls-12" d="M137.21,32.21l1.62,5.55,1.47-5.16q.24-.81.36-1.11a1.33,1.33,0,0,1,.42-.56,1.28,1.28,0,0,1,.86-.27,1.26,1.26,0,0,1,.87.27,1.6,1.6,0,0,1,.45.58c.08.21.2.57.35,1.09l1.48,5.16,1.64-5.55c.11-.4.2-.69.26-.87a1.21,1.21,0,0,1,.34-.48,1.06,1.06,0,0,1,.68-.2,1.09,1.09,0,0,1,.78.31,1,1,0,0,1,.33.73,3.77,3.77,0,0,1-.29,1.15l-2,6c-.18.51-.31.87-.41,1.1a1.73,1.73,0,0,1-.46.6,1.34,1.34,0,0,1-.86.26,1.3,1.3,0,0,1-.89-.28,1.87,1.87,0,0,1-.48-.69c-.1-.28-.21-.63-.33-1.07l-1.43-4.85-1.37,4.85a6.18,6.18,0,0,1-.59,1.53,1.23,1.23,0,0,1-1.12.51,1.32,1.32,0,0,1-1.18-.61,3.35,3.35,0,0,1-.34-.71c-.09-.27-.17-.48-.22-.64l-2-6a4.23,4.23,0,0,1-.3-1.15,1,1,0,0,1,.32-.72,1,1,0,0,1,.78-.32.89.89,0,0,1,.84.35A5.09,5.09,0,0,1,137.21,32.21Z"/><line class="cls-11" x1="151.77" y1="29.11" x2="151.77" y2="42.66"/><path class="cls-12" d="M182.94,46.85c1.33-.3,1.46-1.11.3-1.81l-23.8-14.42c-1.16-.7-1.81-.21-1.45,1.1l7.45,26.81c.36,1.31,1.18,1.4,1.83.2l2.37-4.39a1.47,1.47,0,0,1,2.66-.21l7.39,9.75a2.47,2.47,0,0,0,3.45.48l.93-.7a2.48,2.48,0,0,0,.47-3.46l-7.39-9.75a1.46,1.46,0,0,1,.92-2.5Z"/></g></g></g></svg>