<svg xmlns="http://www.w3.org/2000/svg" viewBox="0 0 230.36 139.61"><defs><style>.cls-1{fill:#a3a3a3;}.cls-2{fill:gray;}.cls-3{fill:#263238;}.cls-4{fill:#ebebeb;}.cls-5{fill:#fafafa;}.cls-6{fill:#d92b2b;}.cls-7{fill:#e8505b;}.cls-8{opacity:0.3;}.cls-9{opacity:0.5;}</style></defs><g id="Layer_2" data-name="Layer 2"><g id="Layer_1-2" data-name="Layer 1"><rect class="cls-1" x="33.53" y="41.61" width="146" height="96" rx="14.57"/><path class="cls-2" d="M28.53,131.61h158a0,0,0,0,1,0,0v0a8,8,0,0,1-8,8h-142a8,8,0,0,1-8-8v0A0,0,0,0,1,28.53,131.61Z"/><rect class="cls-3" x="38.53" y="45.61" width="137" height="81"/><polygon class="cls-3" points="93.15 130.61 95.04 133.61 121.58 133.61 123.33 130.61 93.15 130.61"/><rect class="cls-4" x="40.53" y="48.61" width="132" height="78" rx="3.27"/><polygon class="cls-5" points="172.53 126.61 40.53 126.61 40.67 53.61 172.53 53.61 172.53 126.61"/><path class="cls-3" d="M51.7,51.25a1.06,1.06,0,1,1-1.06-1.06A1.05,1.05,0,0,1,51.7,51.25Z"/><path class="cls-3" d="M45.31,51.25a1.06,1.06,0,1,1-1.05-1.06A1,1,0,0,1,45.31,51.25Z"/><path class="cls-3" d="M48.38,51.25a1.06,1.06,0,1,1-1.06-1.06A1.05,1.05,0,0,1,48.38,51.25Z"/><path class="cls-3" d="M178.48,130.8s-32.32.1-72.17.1-72.17-.05-72.17-.1,32.3-.09,72.17-.09S178.48,130.75,178.48,130.8Z"/><polygon class="cls-6" points="82.87 82.61 136.56 82.11 138.13 118.61 82.53 118.21 82.87 82.61"/><path class="cls-7" d="M83.14,82.42,108.51,61.8a2.93,2.93,0,0,1,3.69,0l24.64,20.12"/><g class="cls-8"><path d="M83.14,82.42,108.51,61.8a2.93,2.93,0,0,1,3.69,0l24.64,20.12"/></g><path class="cls-3" d="M82.81,118c-.07-.06,4.22-4.76,9.58-10.5s9.75-10.34,9.82-10.28S98,102,92.63,107.75,82.87,118.09,82.81,118Z"/><path class="cls-3" d="M138.41,118.42c-.07.06-4.26-4.53-9.37-10.25s-9.19-10.41-9.12-10.47,4.26,4.53,9.37,10.25S138.48,118.36,138.41,118.42Z"/><g class="cls-9"><polyline points="136.84 81.92 109.92 103.51 83.14 82.42"/></g><polygon class="cls-5" points="85.53 84.38 85.42 67.61 132.44 66.95 133 84.6 109.6 103.2 85.53 84.38"/><path class="cls-3" d="M85.53,84l.44.34,1.27,1,4.83,3.75,17.38,13.55h-.1l23.21-18.47,0,.07c-.11-3.34-.23-6.84-.34-10.4-.08-2.4-.15-4.78-.23-7.1l.1.09-46.65.62.06-.07c0,5.23,0,9.39.06,12.24v4.53l.32.29s0-.1,0-.29l0-.84c0-.75,0-1.86,0-3.29a73.2,73.2,0,0,1,.75-12.35v0h-.8c11.36-.2,47-1,47-1h-.6v.09q.1,3.49.23,7.1c.11,3.56.22,7.07.33,10.41v.05l0,0-23.23,18.44,0,0-.05,0L92,89.11,87.2,85.33l-1.25-1Z"/><path class="cls-3" d="M125.34,75.44c0,.06-7.19.16-16.06.23s-16.06.09-16.06,0,7.18-.15,16.06-.23S125.34,75.39,125.34,75.44Z"/><path class="cls-3" d="M125.35,80.18s-7.19.16-16.06.23-16.06.09-16.06,0,7.18-.16,16.06-.23S125.35,80.12,125.35,80.18Z"/><path class="cls-3" d="M125.36,85.64s-7.19.16-16.06.23-16.06.09-16.06,0,7.19-.16,16.06-.23S125.36,85.58,125.36,85.64Z"/><path class="cls-3" d="M125.37,91.1c0,.05-6.86.15-15.32.22s-15.33.08-15.33,0,6.86-.16,15.33-.22S125.37,91.05,125.37,91.1Z"/><path class="cls-3" d="M119.36,95.9l-.18,0-.54,0-2,0-6.55.12c-2.56,0-4.88.06-6.56.06h-2l-.54,0c-.12,0-.19,0-.19,0l.19,0,.54,0,2,0,6.55-.12c2.56,0,4.88-.06,6.56-.06h2l.54,0Z"/><path class="cls-3" d="M113.32,100.52a26.83,26.83,0,0,1-3.42.11,32.73,32.73,0,0,1-3.43-.09,29.5,29.5,0,0,1,3.43-.11A32.45,32.45,0,0,1,113.32,100.52Z"/><path class="cls-3" d="M119.66,66.83s.07.22,0,.48-.09.47-.15.47-.07-.22,0-.48S119.6,66.83,119.66,66.83Z"/><path class="cls-3" d="M120.16,63.15a2.06,2.06,0,0,1,0,.93,2.48,2.48,0,0,1-.24.91,2.53,2.53,0,0,1,0-.94A2.32,2.32,0,0,1,120.16,63.15Z"/><path class="cls-3" d="M120.9,59.5a2.12,2.12,0,0,1-.1.93,2.17,2.17,0,0,1-.3.89,2.43,2.43,0,0,1,.11-.93A2.36,2.36,0,0,1,120.9,59.5Z"/><path class="cls-3" d="M121.91,55.92c.06,0,0,.42-.17.92a2.17,2.17,0,0,1-.37.86,2.35,2.35,0,0,1,.18-.92A2.23,2.23,0,0,1,121.91,55.92Z"/><path class="cls-3" d="M123.21,52.43a2.27,2.27,0,0,1-.25.9,2.32,2.32,0,0,1-.43.83c-.06,0,.06-.42.25-.9A2.32,2.32,0,0,1,123.21,52.43Z"/><path class="cls-3" d="M124.83,49.08a2.68,2.68,0,0,1-.34.87c-.23.46-.46.81-.51.78a2.29,2.29,0,0,1,.33-.87C124.55,49.4,124.78,49.05,124.83,49.08Z"/><path class="cls-3" d="M126.77,45.9s-.15.41-.43.83a2.62,2.62,0,0,1-.58.74,2.28,2.28,0,0,1,.41-.85C126.46,46.2,126.73,45.87,126.77,45.9Z"/><path class="cls-3" d="M129.07,43s-.2.39-.52.78-.63.69-.67.66.19-.39.51-.78S129,42.94,129.07,43Z"/><path class="cls-3" d="M131.69,40.34a2.6,2.6,0,0,1-.61.71,2.49,2.49,0,0,1-.74.57s.23-.36.61-.72S131.65,40.29,131.69,40.34Z"/><path class="cls-3" d="M134.62,38c0,.05-.28.33-.69.63a2.51,2.51,0,0,1-.81.47s.27-.32.69-.63A2.51,2.51,0,0,1,134.62,38Z"/><path class="cls-3" d="M137.83,36.16a2.43,2.43,0,0,1-.77.53,2.23,2.23,0,0,1-.87.35,2.46,2.46,0,0,1,.77-.53A2.28,2.28,0,0,1,137.83,36.16Z"/><path class="cls-3" d="M141.27,34.76a2.4,2.4,0,0,1-.84.41,2.35,2.35,0,0,1-.91.22,2.4,2.4,0,0,1,.84-.41C140.85,34.8,141.26,34.7,141.27,34.76Z"/><path class="cls-3" d="M144.9,33.91a2.18,2.18,0,0,1-.9.25,2.31,2.31,0,0,1-.93.1A2.28,2.28,0,0,1,144,34,2.32,2.32,0,0,1,144.9,33.91Z"/><path class="cls-3" d="M148.61,33.71a4.38,4.38,0,0,1-1.86,0,2.19,2.19,0,0,1,.93-.11A2.08,2.08,0,0,1,148.61,33.71Z"/><path class="cls-3" d="M152.3,34.14a2.17,2.17,0,0,1-.93,0,2.48,2.48,0,0,1-.91-.24,2,2,0,0,1,.94,0A2.32,2.32,0,0,1,152.3,34.14Z"/><path class="cls-3" d="M155.87,35.21A2.41,2.41,0,0,1,155,35a2.19,2.19,0,0,1-.84-.39c0-.06.42,0,.91.21A2.28,2.28,0,0,1,155.87,35.21Z"/><path class="cls-3" d="M159.18,36.9a2.62,2.62,0,0,1-.86-.38,2.33,2.33,0,0,1-.76-.55,2.19,2.19,0,0,1,.86.38C158.87,36.61,159.21,36.85,159.18,36.9Z"/><path class="cls-3" d="M162.1,39.2s-.39-.2-.77-.54-.67-.65-.63-.69a2.4,2.4,0,0,1,.76.54C161.85,38.85,162.13,39.16,162.1,39.2Z"/><path class="cls-3" d="M163.93,41.32s-.2-.11-.36-.31-.26-.4-.21-.44.2.11.36.31S164,41.29,163.93,41.32Z"/><path class="cls-3" d="M181.44,64.13a2.41,2.41,0,0,1-.9-.31c-.47-.22-.84-.44-.81-.49a2.64,2.64,0,0,1,.9.31C181.1,63.86,181.47,64.08,181.44,64.13Z"/><path class="cls-3" d="M185,65.38a2.34,2.34,0,0,1-.93-.19,2.25,2.25,0,0,1-.88-.37,4.41,4.41,0,0,1,1.81.56Z"/><path class="cls-3" d="M188.75,66a2.3,2.3,0,0,1-.95,0,2.2,2.2,0,0,1-.93-.21,2.45,2.45,0,0,1,.95,0A2.49,2.49,0,0,1,188.75,66Z"/><path class="cls-3" d="M192.53,65.85a2.18,2.18,0,0,1-.93.17,2.49,2.49,0,0,1-.95,0,2.18,2.18,0,0,1,.93-.17A2.51,2.51,0,0,1,192.53,65.85Z"/><path class="cls-3" d="M196.25,65.16a2.5,2.5,0,0,1-.9.32,2.3,2.3,0,0,1-.95.09,2.24,2.24,0,0,1,.91-.28A2.11,2.11,0,0,1,196.25,65.16Z"/><path class="cls-3" d="M199.77,63.76a2.33,2.33,0,0,1-.82.49,2.28,2.28,0,0,1-.9.3,2.41,2.41,0,0,1,.81-.48A2.37,2.37,0,0,1,199.77,63.76Z"/><path class="cls-3" d="M202.9,61.65s-.26.36-.68.67-.8.52-.83.47.3-.31.71-.62A2.85,2.85,0,0,1,202.9,61.65Z"/><path class="cls-3" d="M205.48,58.89a2.16,2.16,0,0,1-.51.81c-.33.41-.66.69-.7.65s.22-.37.55-.78S205.43,58.86,205.48,58.89Z"/><path class="cls-3" d="M207.25,55.56a2.08,2.08,0,0,1-.26.91c-.22.49-.46.84-.51.81a3,3,0,0,1,.33-.89A2.81,2.81,0,0,1,207.25,55.56Z"/><path class="cls-3" d="M208,51.85a2,2,0,0,1,0,1,1.93,1.93,0,0,1-.23.92,2.81,2.81,0,0,1,0-.94A3.1,3.1,0,0,1,208,51.85Z"/><path class="cls-3" d="M207.41,48.12a2.07,2.07,0,0,1,.34.89,2.24,2.24,0,0,1,.08,1,2.88,2.88,0,0,1-.28-.91A2.65,2.65,0,0,1,207.41,48.12Z"/><path class="cls-3" d="M205.76,44.73s.33.29.59.75a1.92,1.92,0,0,1,.36.88,2.92,2.92,0,0,1-.53-.79C205.92,45.13,205.71,44.76,205.76,44.73Z"/><path class="cls-3" d="M203.13,42a2,2,0,0,1,.81.52c.4.34.66.69.62.72s-.36-.24-.75-.57S203.1,42.07,203.13,42Z"/><path class="cls-3" d="M199.7,40.49a1.83,1.83,0,0,1,.94.15,2,2,0,0,1,.86.44,3.15,3.15,0,0,1-.92-.25A3.22,3.22,0,0,1,199.7,40.49Z"/><path class="cls-3" d="M195.94,40.55a1.83,1.83,0,0,1,.92-.27,2,2,0,0,1,1,0,3.08,3.08,0,0,1-.93.17A3.3,3.3,0,0,1,195.94,40.55Z"/><path class="cls-3" d="M192.68,42.38s.22-.39.65-.71a1.91,1.91,0,0,1,.85-.44c0,.05-.32.29-.73.6A4.1,4.1,0,0,1,192.68,42.38Z"/><path class="cls-3" d="M191.18,45.77a1.74,1.74,0,0,1,.06-1,1.8,1.8,0,0,1,.39-.88c.06,0-.08.42-.2.92A3.24,3.24,0,0,1,191.18,45.77Z"/><path class="cls-3" d="M191.92,49.45a2.94,2.94,0,0,1-.62-1.79,3.06,3.06,0,0,1,.35.88A3.18,3.18,0,0,1,191.92,49.45Z"/><path class="cls-3" d="M194.4,52.26c0,.05-.41-.16-.81-.51S192.94,51,193,51s.35.25.74.59S194.43,52.22,194.4,52.26Z"/><path class="cls-3" d="M197.83,53.8a2,2,0,0,1-.94-.17,2,2,0,0,1-.85-.44,2.81,2.81,0,0,1,.92.25A2.94,2.94,0,0,1,197.83,53.8Z"/><path class="cls-3" d="M201.59,54.16a2.14,2.14,0,0,1-1,.11,2,2,0,0,1-.94-.15,2.62,2.62,0,0,1,1,0A2.56,2.56,0,0,1,201.59,54.16Z"/><path class="cls-3" d="M205.3,53.47a2,2,0,0,1-.88.36,2.13,2.13,0,0,1-.95.11,2.58,2.58,0,0,1,.9-.3A2.78,2.78,0,0,1,205.3,53.47Z"/><path class="cls-3" d="M208.73,51.9a2.41,2.41,0,0,1-.79.53,2.36,2.36,0,0,1-.88.35,2.52,2.52,0,0,1,.79-.53A2.36,2.36,0,0,1,208.73,51.9Z"/><path class="cls-3" d="M211.77,49.64s-.26.35-.67.68-.76.57-.79.52.26-.34.67-.67S211.73,49.6,211.77,49.64Z"/><path class="cls-3" d="M214.35,46.88a2.47,2.47,0,0,1-.54.78c-.34.4-.65.69-.69.65a2.47,2.47,0,0,1,.54-.78C214,47.14,214.31,46.84,214.35,46.88Z"/><path class="cls-3" d="M216.43,43.72a2.31,2.31,0,0,1-.4.86c-.27.45-.53.79-.58.76a2.49,2.49,0,0,1,.41-.86C216.13,44,216.38,43.69,216.43,43.72Z"/><path class="cls-3" d="M218,40.26a2.47,2.47,0,0,1-.26.91,2.35,2.35,0,0,1-.44.85,2.49,2.49,0,0,1,.26-.92C217.72,40.62,217.91,40.24,218,40.26Z"/><path class="cls-3" d="M219,36.62a2.19,2.19,0,0,1-.14.94,2.49,2.49,0,0,1-.33.9,2.45,2.45,0,0,1,.14-1A2.49,2.49,0,0,1,219,36.62Z"/><path class="cls-3" d="M219.69,32.9a2.46,2.46,0,0,1-.05,1,2.42,2.42,0,0,1-.24.92,2.48,2.48,0,0,1,0-1A2.06,2.06,0,0,1,219.69,32.9Z"/><path class="cls-3" d="M220,29.13a2.51,2.51,0,0,1,0,.95,2.31,2.31,0,0,1-.17.94,2.6,2.6,0,0,1,0-1A2.18,2.18,0,0,1,220,29.13Z"/><path class="cls-3" d="M220.16,25.34a2.48,2.48,0,0,1,.08.95,2.43,2.43,0,0,1-.12.95,2.27,2.27,0,0,1-.08-.95A2.27,2.27,0,0,1,220.16,25.34Z"/><path class="cls-3" d="M220.13,21.56a2.52,2.52,0,0,1,.11.94,2.44,2.44,0,0,1-.08.95,2.2,2.2,0,0,1-.12-.94A2.33,2.33,0,0,1,220.13,21.56Z"/><path class="cls-3" d="M220.07,19.23c.06,0,.1.09.11.21s0,.22-.1.22-.1-.09-.1-.21S220,19.23,220.07,19.23Z"/><rect class="cls-6" x="203.5" y="9.34" width="25.89" height="17.45" transform="translate(-0.69 23.47) rotate(-6.2)"/><path class="cls-3" d="M204.51,28.15h0l-1.89-17.36h0L228.38,8h0l1.88,17.35h0ZM202.64,10.8l1.88,17.33,25.72-2.79L228.36,8Z"/><path class="cls-3" d="M228.47,8.2a1.33,1.33,0,0,1-.21.25l-.65.71-2.42,2.57-8.06,8.43-.07.07-.08-.05-.19-.13-10-6.36-3-1.95-.81-.55c-.18-.12-.28-.19-.27-.2l.3.16.83.51,3,1.89,10,6.3.2.13L217,20l8.11-8.39,2.47-2.51c.29-.28.51-.51.68-.68Z"/><path class="cls-3" d="M204.62,28.34c-.05,0,1.62-2.62,3.75-5.78s3.88-5.69,3.94-5.65-1.63,2.62-3.75,5.78S204.67,28.38,204.62,28.34Z"/><path class="cls-3" d="M220.84,15.76s2.21,2.11,4.84,4.81,4.72,4.93,4.68,5-2.22-2.11-4.85-4.81S220.79,15.81,220.84,15.76Z"/><path class="cls-3" d="M110.84,60.59s.13.2.18.46,0,.47,0,.48-.13-.19-.18-.45S110.79,60.6,110.84,60.59Z"/><path class="cls-3" d="M110.23,56.9a2.13,2.13,0,0,1,.25.91,2.21,2.21,0,0,1,0,.94,2.41,2.41,0,0,1-.24-.91A2.32,2.32,0,0,1,110.23,56.9Z"/><path class="cls-3" d="M109.69,53.2a2.12,2.12,0,0,1,.23.91,2.2,2.2,0,0,1,0,.94,2.4,2.4,0,0,1-.22-.91A2.29,2.29,0,0,1,109.69,53.2Z"/><path class="cls-3" d="M109.27,49.48a2.3,2.3,0,0,1,.19.92,2.09,2.09,0,0,1,0,.94,2.36,2.36,0,0,1-.19-.92A2.06,2.06,0,0,1,109.27,49.48Z"/><path class="cls-3" d="M109,45.74a2.49,2.49,0,0,1,.15.93,2.12,2.12,0,0,1,0,.94,2.38,2.38,0,0,1-.15-.93A2.17,2.17,0,0,1,109,45.74Z"/><path class="cls-3" d="M109,42a2.52,2.52,0,0,1,.09.94,2.37,2.37,0,0,1-.1.93,2.2,2.2,0,0,1-.1-.94A2.27,2.27,0,0,1,109,42Z"/><path class="cls-3" d="M109.2,38.27a2.05,2.05,0,0,1,0,.94,2.42,2.42,0,0,1-.17.92,2.05,2.05,0,0,1,0-.94A2.3,2.3,0,0,1,109.2,38.27Z"/><path class="cls-3" d="M109.77,34.56a2.44,2.44,0,0,1-.07.94,2.42,2.42,0,0,1-.26.91,2.44,2.44,0,0,1,.07-.94A2.22,2.22,0,0,1,109.77,34.56Z"/><path class="cls-3" d="M110.72,31a2.47,2.47,0,0,1-.17.92,2.43,2.43,0,0,1-.36.87,2.07,2.07,0,0,1,.17-.92A2.33,2.33,0,0,1,110.72,31Z"/><path class="cls-3" d="M112.12,27.48a2.29,2.29,0,0,1-.29.89,2.3,2.3,0,0,1-.46.82,2.23,2.23,0,0,1,.28-.9C111.86,27.82,112.07,27.45,112.12,27.48Z"/><path class="cls-3" d="M114,24.21a2.58,2.58,0,0,1-.4.85,2.41,2.41,0,0,1-.57.76,2.24,2.24,0,0,1,.4-.86C113.65,24.52,113.9,24.18,114,24.21Z"/><path class="cls-3" d="M116.19,21.22a2.45,2.45,0,0,1-.51.79c-.32.4-.62.7-.66.67s.18-.39.51-.79S116.15,21.18,116.19,21.22Z"/><path class="cls-3" d="M118.85,18.59s-.24.36-.62.7-.72.6-.76.56.24-.35.62-.7A2.48,2.48,0,0,1,118.85,18.59Z"/><path class="cls-3" d="M121.91,16.44s-.3.31-.74.58-.81.47-.84.42.3-.3.74-.58S121.88,16.39,121.91,16.44Z"/><path class="cls-3" d="M125.32,14.9a2.36,2.36,0,0,1-.84.44,2.36,2.36,0,0,1-.9.24c0-.05.35-.24.83-.43A2.34,2.34,0,0,1,125.32,14.9Z"/><path class="cls-3" d="M128.05,14.23s-.19.14-.44.18-.47.05-.49,0,.19-.14.45-.19S128,14.18,128.05,14.23Z"/><rect class="cls-6" x="108.13" y="-0.14" width="18.97" height="28.15" transform="translate(62.2 118.61) rotate(-68.86)"/><path class="cls-3" d="M127.33,27.87h0L101.06,17.71h0L107.91,0h0l26.26,10.16h0ZM101.08,17.7l26.24,10.15,6.83-17.68L107.92,0Z"/><path class="cls-3" d="M134.17,10.41a1.51,1.51,0,0,1-.34.14l-1,.36-3.61,1.27-12,4.12-.1,0,0-.09L117,16,110.52,4.9l-1.93-3.38-.51-.93a3.33,3.33,0,0,1-.17-.33,1.54,1.54,0,0,1,.21.3l.56.91,2,3.34,6.51,11.08.13.22-.15-.05,12-4,3.64-1.19,1-.32A1.48,1.48,0,0,1,134.17,10.41Z"/><path class="cls-3" d="M101.07,18c0-.06,2.88-1.72,6.51-3.71s6.59-3.55,6.62-3.49-2.87,1.73-6.5,3.72S101.11,18,101.07,18Z"/><path class="cls-3" d="M123,13.91c.06,0,1.08,3.14,2.27,7.06s2.1,7.12,2,7.14S126.24,25,125.05,21,123,13.93,123,13.91Z"/><path class="cls-3" d="M99.81,64.74c.06,0,.08.22.06.48s-.08.47-.13.46-.08-.22-.06-.48S99.76,64.74,99.81,64.74Z"/><path class="cls-3" d="M99.91,60.89a2.51,2.51,0,0,1,.1,1,2.31,2.31,0,0,1-.11,1,2.63,2.63,0,0,1-.09-1A2.3,2.3,0,0,1,99.91,60.89Z"/><path class="cls-3" d="M99.65,57.05a2.54,2.54,0,0,1,.18,1,2.24,2.24,0,0,1,0,1,2.6,2.6,0,0,1-.18-1A2.25,2.25,0,0,1,99.65,57.05Z"/><path class="cls-3" d="M99,53.25a2.67,2.67,0,0,1,.28.92,2.63,2.63,0,0,1,.09,1,2.44,2.44,0,0,1-.29-.93A2.24,2.24,0,0,1,99,53.25Z"/><path class="cls-3" d="M98,49.54a2.45,2.45,0,0,1,.38.89,2.24,2.24,0,0,1,.19,1,2.56,2.56,0,0,1-.38-.89A2.41,2.41,0,0,1,98,49.54Z"/><path class="cls-3" d="M96.49,46a2.86,2.86,0,0,1,.48.84,2.5,2.5,0,0,1,.31.92,2.42,2.42,0,0,1-.49-.84A2.27,2.27,0,0,1,96.49,46Z"/><path class="cls-3" d="M94.57,42.64c.05,0,.32.31.61.76a2.77,2.77,0,0,1,.41.88s-.31-.32-.58-.77A2.8,2.8,0,0,1,94.57,42.64Z"/><path class="cls-3" d="M92.21,39.6s.35.27.7.68a2.55,2.55,0,0,1,.54.8s-.36-.27-.69-.68A2.46,2.46,0,0,1,92.21,39.6Z"/><path class="cls-3" d="M89.45,36.92a2.49,2.49,0,0,1,.78.57c.4.36.69.68.65.72s-.39-.22-.78-.57S89.41,37,89.45,36.92Z"/><path class="cls-3" d="M86.33,34.67a2.29,2.29,0,0,1,.85.45c.45.3.78.57.75.62a2.61,2.61,0,0,1-.86-.45C86.63,35,86.3,34.72,86.33,34.67Z"/><path class="cls-3" d="M82.89,32.92a2.44,2.44,0,0,1,.92.31c.49.23.86.45.83.5a5.11,5.11,0,0,1-1.75-.81Z"/><path class="cls-3" d="M79.22,31.76a2.54,2.54,0,0,1,1,.16,2.23,2.23,0,0,1,.9.34,4.61,4.61,0,0,1-1.86-.5Z"/><path class="cls-3" d="M75.41,31.27a2.57,2.57,0,0,1,1,0,2.25,2.25,0,0,1,1,.2,2.54,2.54,0,0,1-1,0A2.33,2.33,0,0,1,75.41,31.27Z"/><path class="cls-3" d="M71.57,31.54a2.31,2.31,0,0,1,.94-.22,2.52,2.52,0,0,1,1,0,2.54,2.54,0,0,1-.94.21A2.67,2.67,0,0,1,71.57,31.54Z"/><path class="cls-3" d="M67.85,32.53a2.37,2.37,0,0,1,.89-.39,2.54,2.54,0,0,1,1-.2,2.39,2.39,0,0,1-.89.39A2.54,2.54,0,0,1,67.85,32.53Z"/><path class="cls-3" d="M64.38,34.2c0-.05.33-.3.8-.55a2.43,2.43,0,0,1,.9-.37,5,5,0,0,1-1.7.92Z"/><path class="cls-3" d="M61.31,36.51s.26-.35.67-.7a2.42,2.42,0,0,1,.81-.54s-.28.36-.68.7A2.78,2.78,0,0,1,61.31,36.51Z"/><path class="cls-3" d="M58.79,39.41s.16-.41.49-.84.65-.72.69-.68a2.64,2.64,0,0,1-.54.8C59.11,39.11,58.83,39.44,58.79,39.41Z"/><path class="cls-3" d="M57.38,41.91c-.05,0,0-.23.12-.47s.25-.4.3-.38,0,.24-.12.47S57.43,41.94,57.38,41.91Z"/><path class="cls-3" d="M33.33,64.26c0-.06.2-.13.45-.16s.48,0,.49,0-.2.13-.46.16S33.33,64.31,33.33,64.26Z"/><path class="cls-3" d="M29.58,63.83a3.29,3.29,0,0,1,.93.14,3.24,3.24,0,0,1,.92.25,2,2,0,0,1-1,0A1.87,1.87,0,0,1,29.58,63.83Z"/><path class="cls-3" d="M26.19,62.16s.4.16.84.43a2.82,2.82,0,0,1,.79.54,2,2,0,0,1-.89-.37C26.48,62.49,26.15,62.2,26.19,62.16Z"/><path class="cls-3" d="M23.37,59.63s.35.25.72.62.65.68.61.73-.38-.21-.75-.59A2.25,2.25,0,0,1,23.37,59.63Z"/><path class="cls-3" d="M21.14,56.56c.05,0,.32.3.6.74a2.38,2.38,0,0,1,.44.85s-.31-.3-.6-.74S21.09,56.59,21.14,56.56Z"/><path class="cls-3" d="M19.51,53.14A2.47,2.47,0,0,1,20,54a2.44,2.44,0,0,1,.28.92,2.28,2.28,0,0,1-.46-.84C19.58,53.57,19.45,53.16,19.51,53.14Z"/><path class="cls-3" d="M18.42,49.51a4.84,4.84,0,0,1,.48,1.83,2.41,2.41,0,0,1-.34-.89A2.22,2.22,0,0,1,18.42,49.51Z"/><path class="cls-3" d="M17.76,45.77a2.5,2.5,0,0,1,.24.92,2.2,2.2,0,0,1,0,1,2.51,2.51,0,0,1-.24-.93A2.16,2.16,0,0,1,17.76,45.77Z"/><path class="cls-3" d="M17.39,42a2.22,2.22,0,0,1,.18.94,2.51,2.51,0,0,1,0,1,2.28,2.28,0,0,1-.18-.93A2.58,2.58,0,0,1,17.39,42Z"/><path class="cls-3" d="M17.24,39.15c.05,0,.11.21.12.47s0,.47-.08.47-.11-.2-.12-.46S17.18,39.15,17.24,39.15Z"/><rect class="cls-6" x="0.49" y="16.92" width="31.52" height="21.24" transform="translate(-1.28 0.8) rotate(-2.7)"/><path class="cls-3" d="M1,38.91H1L0,17.67H0L31.5,16.18h0l1,21.23h0ZM0,17.69l1,21.2,31.46-1.48-1-21.21Z"/><path class="cls-3" d="M31.61,16.44a2.7,2.7,0,0,1-.28.3c-.22.2-.49.47-.84.81-.77.71-1.83,1.71-3.13,2.94L16.93,30.14l-.08.08-.1-.07L16.52,30,4.89,21.51l-3.5-2.6-.95-.72a2.77,2.77,0,0,1-.32-.26,1.86,1.86,0,0,1,.35.22l1,.67L5,21.34l11.68,8.41.23.16-.18,0,10.48-9.59,3.19-2.87.88-.77A2.21,2.21,0,0,1,31.61,16.44Z"/><path class="cls-3" d="M1.12,39.15c-.06,0,2.17-3.07,5-6.75s5.15-6.62,5.21-6.57-2.16,3.07-5,6.75S1.19,39.2,1.12,39.15Z"/><path class="cls-3" d="M21.77,25.07c.06-.05,2.53,2.73,5.52,6.2s5.38,6.34,5.32,6.39-2.54-2.72-5.53-6.2S21.71,25.12,21.77,25.07Z"/></g></g></svg>